<svg width="38" height="38" viewBox="0 0 38 38" fill="none" xmlns="http://www.w3.org/2000/svg">
<path d="M0 2.72175C0 1.21838 1.24925 0 2.79062 0H35.2094C36.7507 0 38 1.21838 38 2.72175V35.2783C38 36.7816 36.7507 38 35.2094 38H2.79062C1.24925 38 0 36.7816 0 35.2783V2.72175ZM11.7396 31.8108V14.6514H6.03725V31.8108H11.7396ZM8.88963 12.3073C10.8775 12.3073 12.1149 10.9915 12.1149 9.34325C12.0792 7.65938 10.8799 6.37925 8.92763 6.37925C6.97538 6.37925 5.7 7.66175 5.7 9.34325C5.7 10.9915 6.93738 12.3073 8.85162 12.3073H8.88963V12.3073ZM20.5461 31.8108V22.2276C20.5461 21.7146 20.5841 21.2016 20.7361 20.8359C21.147 19.8122 22.0851 18.7506 23.6621 18.7506C25.726 18.7506 26.5501 20.3229 26.5501 22.6314V31.8108H32.2525V21.9688C32.2525 16.6962 29.4405 14.2453 25.688 14.2453C22.6622 14.2453 21.3061 15.9077 20.5461 17.0786V17.138H20.5081C20.5207 17.1182 20.5334 17.0984 20.5461 17.0786V14.6514H14.8461C14.9174 16.2616 14.8461 31.8108 14.8461 31.8108H20.5461Z" fill="#FF6B35"/>
</svg>
