<svg width="1440" height="403" viewBox="0 0 1440 403" fill="none" xmlns="http://www.w3.org/2000/svg">
<path fill-rule="evenodd" clip-rule="evenodd" d="M0 302.353L120 189.417C181.5 126.22 260.5 46.0529 380.5 54.4401C500.5 62.8274 641 228.238 761 228.238C881 228.238 1066 96.3765 1186 37.6656C1306 -21.0454 1326.5 80.1871 1380 54.4401L1440 0.410405V403H1380C1320 403 1200 403 1080 403C960 403 840 403 720 403C600 403 480 403 360 403C240 403 120 403 60 403H0V302.353Z" fill="#FF6B35" fill-opacity="0.2"/>
</svg>
